<?xml version="1.0" encoding="UTF-8"?><svg id="a" xmlns="http://www.w3.org/2000/svg" viewBox="0 0 1398.07 582.63"><defs><style>.b{fill:#fff;}.c{fill:#231f20;}</style></defs><path class="b" d="M1347.72,419.07c-1.43-2.76-.88-6.16,1.33-8.35,146.45-145.11-85.68-102.94-47.21-141.38,101.39-7.05,68.76-67.96,30-122.25-1.9-2.65-1.69-6.25,.42-8.74,102.87-121.3-54.68-148.8-100.51-86.82-1.73,2.35-4.57,3.5-7.42,2.9-30.04-6.38-69.23-2.28-84.75,27.28-1.69,3.23-5.55,4.64-8.9,3.2-22.75-9.76-52.65-9.82-67.85,8.84-3.03,3.71-8.81,2.93-11.34-1.14-19.85-31.84-69.55-28.34-104.07-8.52-5.01,2.88-10.96-1.01-10.59-6.77,5.64-86.1-133.56-113.99-144.25-12.04-.54,5.12-5.95,7.99-10.5,5.57-44.48-23.64-118.3-23.18-141.17,16.22-2.08,3.59-6.65,4.63-10.11,2.35-55.23-36.33-126.4-39.73-171.66-10.75-2.54,1.63-5.72,1.5-8.16-.26-40.94-29.53-113.87-22.26-98.49,35.15,.25,.78,.43,1.59,.55,2.43,1.24,8.78-12.42,10.54-14.01,1.82-9.56-52.67-30.96-81.62-87.27-73.88-25.09,6.24-26.43,26.64-31.72,45.95-1.53,5.57-8.86,6.87-12.39,2.29C76.75-77.96-92.13,114.91,60.46,169.02c2.57,.91,4.53,3.19,4.77,5.91,4.43,49.92-37.53,42.09-41.63,98.57-3.33,44,11.58,73.67,56.88,79.85,3.93,.54,6.71,4.28,5.94,8.18-10.61,54.02,10.35,115.13-35.3,149.56-1.55,1.17-2.66,2.92-2.88,4.85-8.25,75.2,92.87,82.82,146.51,42.72,2.86-2.14,6.89-1.55,9.29,1.1,24.12,26.68,71.39,14.57,97.06-6.48,2.51-2.06,6.17-2.19,8.67-.13,31.36,25.81,82.41,19.66,112.39-4.57,2.52-2.03,6.19-2.04,8.66,.04,41.17,34.68,131.72,21.86,180.27,6.71,2.01-.63,4.1-.28,5.89,.84,46.14,28.89,138.42,1.77,176.41-19.31,3.66-2.03,8.41-.57,10.06,3.27,11.17,26.01,42.57,34.01,56.67,26.86,.94-.48,1.9-.82,2.96-.88,33.29-1.71,79.18,10.8,107.32-18.61,2.68-2.8,7.06-2.96,9.9-.31,39.99,37.12,132.94,23.43,181.48,7.78,2.37-.76,4.86-.17,6.78,1.4,32.37,26.39,89.22,8.98,113.65-21.08,1.67-2.05,4.27-3.09,6.88-2.63,103.66,18.37,94.53-44.5,58.62-113.61ZM161.08,458.06s11.48-9.59,11.47-9.6l-11.47,9.6Z"/><path class="c" d="M446.65,233.71c-24.51,56.59,27.95,44.67,40.46,22.62,12.51-22.05-39.56-126.64-45.18-145.01-5.62-18.37-70.73-32.21-61.95-7.56,21.1,34.69-90.99,190.65,5.49,169.18,6.95-1.55,10.98-8.96,8.23-15.52-5.31-12.67-11.81-31.99-5.73-39.22,9.37-11.14,67.56-5.02,58.67,15.51Zm-35.41-47.89c-23.43-1.24-18.87-17.95-10.8-40.27,10.88-30.11,23.94,23.88,31.14,34.58,7.21,10.7,3.08,6.93-20.34,5.69Z"/><path class="c" d="M656.96,166.13c-35.33-112.36-163.72-77.16-163.72-77.16-34.65,0-15.63,50.94,0,45.69,15.62-5.24,51.63,117.61,27.85,113.11-23.78-4.49-4.08,32.21,2.04,56.18,6.11,23.97,169.16-25.47,133.83-137.83Zm-84.24,75.66c-26.49-3.75-23.78,3.07-25.82-46.41-2.04-49.48-11.96-39.57,0-42.56,74.04-28.74,84.42,64.57,25.82,88.96Z"/><path class="c" d="M817.43,176.05c-12.25-127.36-227.07-118.64-130.66-.47,19.49,20.99,7.07,69.97-7.16,84.71-14.72,75.86,145.2,41.98,137.82-84.24Zm-79.96,64c-11.7-31.48-26.61-77.03-8.45-79.28,0,0,50.71-12.17,55.26,19.31,4.55,31.48-35.1,91.45-46.81,59.96Z"/><path class="c" d="M832.45,134.81c88.56-38.23,55.76,69.17,75.19,107.37,17.04,12.89,12.07,49.25-24.82,47.23-134.26-4.35,16.02-67.22-48.25-137.95-2.83-7.63-11.13-12.11-2.12-16.65Z"/><path class="c" d="M842.95,26.97c94.92-.91,28.4,115.45-8.92,69.33-7.92-9.79-10.26-22.83-8.59-35.32,2.51-18.78-1.97-36.44,17.51-34.02Z"/><path class="c" d="M1027.4,112.62c5.85,13.13,18.85,54.05,4.55,60.23s-40.3-33.74-35.75-15.33c4.55,18.42,8.4,24.59,42.23,54.71,33.83,30.11-8.83,84.17-42.76,72.58-33.93-11.58-41.08,10.81-50.18-3.86-9.1-14.67-28.6-78.45,12.35-64.32,40.95,14.13,30.55-13.94,14.3-21.91-95.81-63.63,43.29-125.77,55.26-82.1Z"/><path class="c" d="M172.56,448.46c5.82,6.95,48.76,53.89,50.06,83.48,1.3,29.6,71.51,6.07,69.56-18.21-1.95-24.29-33.15-88.8-14.95-110.05,18.2-21.25,30.55-13.66,24.7-34.91-5.85-21.25-33.15-59.2-70.86-36.43,0,0-11.7,22.77,3.9,54.64,15.6,31.88-18.85,56.92-24.05,15.18-15.68-104.66-111.44-103.37-98.81,20.49,5.85,62.99-22.75,98.66-33.8,98.66s13,61.47,89.71,18.21c0,0-18.86-119.04,4.55-91.07Z"/><path class="c" d="M335.08,365.55s-37.05,143.61-5.85,166.03c31.2,22.41,93.61,0,87.76-35.7-5.85-35.7-22.1-14.11-30.55-34.04-8.45-19.92,14.3-67.24,10.4-80.52-3.9-13.28-51.36-35.7-61.76-15.77Z"/><path class="c" d="M364.33,289.51c5.19-.35,31.85,4.79,32.5,35.01,.65,30.22-36.93,21.1-44.2,5.52-5.02-10.75-13.65-38.8,11.7-40.53Z"/><path class="c" d="M456.07,335.57c4.78-4.5,10.92-7.29,17.41-8.25,27.38-4.03,67.75-4.07,75.12,5.55,8.15,10.64,12.05,31.17-13.3,34.21-25.35,3.04-50.06-4.56-42.9,6.08,7.15,10.64,31.2,17.49,40.3,12.16,9.1-5.32,24.7,21.29,9.1,29.65-15.6,8.36-59.75-15.21-55.55,12.92,4.01,96.77,73.68-30.87,100.41,28.12,16.25,35.74,41.6,81.35-17.55,80.59-59.16-.76-132.61,16.73-120.26-28.13,12.35-44.86,16.25-157.94,5.85-162.6-5.2-2.33-2.56-6.62,1.38-10.33Z"/><path class="c" d="M623.71,354.32c27.17,19.27-38.94,185.35,28.59,184.34,29.26,4.83,127.5-16.57,132.34-32.45,4.84-15.88,7.44-99.42-48.47-80.09-55.91,19.33-55.26,44.19-57.86,24.86-2.6-19.33,18.2-111.85-7.8-120.13-26-8.29-55.26,2.76-46.81,23.47Z"/><path class="c" d="M1220.66,388.15c20.38,9.7,59.9,76.95,55.7,98.66-4.2,21.71,68.77,30.98,69.3,5.38,.53-25.6-46.31-65.52-23.65-95.41,22.66-29.9,66.87-58.62,33.93-70.72-132.89-44.56-43.9,90.69-70.77,102.27-11.83-11.82-13.24-79.89-37.32-89.74-24.08-9.86-97.03-14.4-91.17,26.08,5.86,40.48,51.47,116.31,33.07,140.31-40.56,63.96,112.48,30.66,67.38-24.57-22.28-37.89-55.41-101.26-36.47-92.24Z"/><path class="c" d="M1201.38,136.72c21.67,6.29,71.51,66.31,70.86,88.41-.65,22.1,72.86,19.5,69.26-5.85-3.6-25.35-56.26-57.21-38.7-90.36,17.55-33.15,56.56-68.62,22.1-75.26-138.33-22.59-28.73,96.58-53.38,112.32-13.58-9.76-25.93-76.72-51.28-82.57-25.35-5.85-67.51-3.25-55.21,35.75,12.3,39,38.95,111.16,24.65,137.82-29.74,69.65,115.95,12.16,62.54-35.1-28.09-33.81-70.99-91.01-50.84-85.16Z"/><path class="c" d="M941.21,333.7c7.64,15.62,24.62,64.34,5.94,71.69-18.68,7.35-52.63-40.16-46.69-18.24,5.94,21.92,10.97,29.27,55.15,65.12,44.17,35.84-11.53,100.18-55.84,86.39-44.3-13.79-53.64,12.87-65.52-4.6-11.88-17.46-37.35-93.38,16.13-76.56,53.48,16.82,39.9-16.6,18.68-26.08-125.11-75.73,56.53-149.7,72.16-97.72Z"/><path class="c" d="M1007.09,332.87c26.65-5.32,83.81-10.64,91.96,0,8.15,10.64,12.05,31.17-13.3,34.21-25.35,3.04-50.06-4.56-42.9,6.08,7.15,10.64,31.2,17.49,40.3,12.16,9.1-5.32,24.7,21.29,9.1,29.65-15.6,8.36-59.75-15.21-55.55,12.92,4.01,96.77,73.68-30.87,100.41,28.12,16.25,35.74,41.6,81.35-17.55,80.59-59.16-.76-132.61,16.73-120.26-28.13,12.35-44.86,16.25-157.94,5.85-162.6-10.4-4.66,1.95-13.02,1.95-13.02Z"/><path class="c" d="M1156.68,170.62c-7.24-46.22-35.78-60.46-58.18-63.47-9.68-1.3-21.69,5.7-26.9,79.93-5.2,74.23,16.9,94.15,55.98,99.1,39.08,4.95,36.33-69.33,29.09-115.55Zm-33.07,50.77c-10.4,3.71-34.62-4.63-25.11-25.22,9.51-20.59-1.92-38.36,17.44-34.43,14.46,2.94,18.07,55.94,7.67,59.65Z"/><path class="c" d="M93.97,101.72c7.31,2.85,7.32,18.66,7.52,33.38,0,0-.57,83.86-10.85,106.6-6.31,13.97-26.03-12.24-31.57,35.89-3.74,32.52,12.47,41.27,31.65,40.96,38.38-.63,67.29-34.4,65.72-72.76-1.51-36.91-13.17-74.42-13.17-74.42-4.12-27.6,27.36,30.35,65.25,45.52,37.89,15.17,42.1-39.02,61.04-49.86,18.94-10.84,5.79,72.62-11.05,94.3-16.84,21.68,8.95,33.6,55.26,40.1s23.77-35.21,12.63-45.52c-9.39-8.7-21.05-140.91-29.47-160.42-8.42-19.51-44.2-26.01-39.99-6.5,4.21,19.51-26.31,54.18-38.94,62.85-2.53,1.74-5.21,1.14-8.27-1.01-1.62-1.96-77.21-93.44-112.99-94.39-20.94-.56-54.28,13.74-58.82,37.28-2.87,14.84,5.51,35.31,21.23,40.02,13.92,4.18,31.6-4.59,33.09-13.63,1.17-7.06-7.6-14.03-4.87-17.52,1.29-1.65,4.51-1.69,6.6-.87Z"/></svg>